<svg width="204" height="63" viewBox="0 0 204 63" fill="none" xmlns="http://www.w3.org/2000/svg">
<path d="M76.4805 31.0781C76.4805 30.5156 76.1953 30.0625 75.625 29.7188C75.0625 29.375 74.3711 29.0898 73.5508 28.8633C72.7383 28.6289 71.9258 28.3555 71.1133 28.043C70.3086 27.7305 69.6211 27.2148 69.0508 26.4961C68.4805 25.7773 68.1953 24.8672 68.1953 23.7656C68.1953 22.4062 68.7383 21.2461 69.8242 20.2852C70.918 19.3242 72.3359 18.8438 74.0781 18.8438C74.7656 18.8438 75.4297 18.9258 76.0703 19.0898C76.7109 19.2461 77.2344 19.4336 77.6406 19.6523C78.0547 19.8633 78.4141 20.082 78.7188 20.3086C79.0312 20.5273 79.2539 20.7188 79.3867 20.8828L79.5977 21.1172L77.4414 23.4023C77.3477 23.293 77.2148 23.1602 77.043 23.0039C76.8789 22.8398 76.5273 22.625 75.9883 22.3594C75.4492 22.0938 74.8945 21.9609 74.3242 21.9609C73.6367 21.9609 73.082 22.1367 72.6602 22.4883C72.2461 22.8398 72.0391 23.2656 72.0391 23.7656C72.0391 24.3281 72.3203 24.7812 72.8828 25.125C73.4531 25.4609 74.1406 25.7461 74.9453 25.9805C75.7578 26.2148 76.5703 26.4883 77.3828 26.8008C78.2031 27.1133 78.8984 27.6289 79.4688 28.3477C80.0391 29.0664 80.3242 29.9766 80.3242 31.0781C80.3242 32.6328 79.7578 33.9023 78.625 34.8867C77.5 35.8711 75.9453 36.3633 73.9609 36.3633C73.1797 36.3633 72.4219 36.2656 71.6875 36.0703C70.9609 35.8828 70.3594 35.6562 69.8828 35.3906C69.4141 35.125 69 34.8555 68.6406 34.582C68.2812 34.3086 68.0234 34.0781 67.8672 33.8906L67.5977 33.5977L69.7656 31.4414C69.875 31.5664 70.0273 31.7305 70.2227 31.9336C70.4258 32.1289 70.8711 32.3945 71.5586 32.7305C72.2461 33.0664 72.9648 33.2344 73.7148 33.2344C74.582 33.2344 75.2578 33.0312 75.7422 32.625C76.2344 32.2188 76.4805 31.7031 76.4805 31.0781ZM88.1172 31.9805C88.8516 32.7383 89.7305 33.1172 90.7539 33.1172C91.7773 33.1172 92.6523 32.7383 93.3789 31.9805C94.1055 31.2227 94.4688 30.2812 94.4688 29.1562V19.1953H98.0664V29.1562C98.0664 31.2031 97.3711 32.918 95.9805 34.3008C94.5898 35.6758 92.8438 36.3633 90.7422 36.3633C88.6484 36.3633 86.9062 35.6758 85.5156 34.3008C84.125 32.918 83.4297 31.2031 83.4297 29.1562V19.1953H87.0273V29.1562C87.0273 30.2734 87.3906 31.2148 88.1172 31.9805ZM102.273 19.1953H109.352C111.078 19.1953 112.508 19.7383 113.641 20.8242C114.781 21.9023 115.352 23.2422 115.352 24.8438C115.352 26.4375 114.785 27.7773 113.652 28.8633C112.52 29.9414 111.086 30.4805 109.352 30.4805H105.883V36H102.273V19.1953ZM109.234 22.4414H105.883V27.2344H109.234C109.953 27.2344 110.551 27.0039 111.027 26.543C111.512 26.082 111.754 25.5156 111.754 24.8438C111.754 24.1719 111.512 23.6055 111.027 23.1445C110.551 22.6758 109.953 22.4414 109.234 22.4414ZM118.586 19.1953H125.664C127.391 19.1953 128.82 19.7383 129.953 20.8242C131.094 21.9023 131.664 23.2422 131.664 24.8438C131.664 26.4375 131.098 27.7773 129.965 28.8633C128.832 29.9414 127.398 30.4805 125.664 30.4805H122.195V36H118.586V19.1953ZM125.547 22.4414H122.195V27.2344H125.547C126.266 27.2344 126.863 27.0039 127.34 26.543C127.824 26.082 128.066 25.5156 128.066 24.8438C128.066 24.1719 127.824 23.6055 127.34 23.1445C126.863 22.6758 126.266 22.4414 125.547 22.4414ZM139.234 23.6836C138.188 24.7461 137.664 26.0547 137.664 27.6094C137.664 29.1562 138.188 30.4609 139.234 31.5234C140.281 32.5859 141.555 33.1172 143.055 33.1172C144.562 33.1172 145.84 32.5859 146.887 31.5234C147.934 30.4609 148.457 29.1562 148.457 27.6094C148.457 26.0547 147.934 24.7461 146.887 23.6836C145.84 22.6133 144.562 22.0781 143.055 22.0781C141.555 22.0781 140.281 22.6133 139.234 23.6836ZM136.574 33.7969C134.816 32.0781 133.938 30.0117 133.938 27.5977C133.938 25.1836 134.816 23.1211 136.574 21.4102C138.34 19.6992 140.5 18.8438 143.055 18.8438C145.617 18.8438 147.777 19.6992 149.535 21.4102C151.301 23.1211 152.184 25.1836 152.184 27.5977C152.184 30.0117 151.301 32.0781 149.535 33.7969C147.777 35.5078 145.617 36.3633 143.055 36.3633C140.5 36.3633 138.34 35.5078 136.574 33.7969ZM155.547 36V19.1953H162.988C164.652 19.1953 166.027 19.7305 167.113 20.8008C168.207 21.8633 168.754 23.168 168.754 24.7148C168.754 25.3867 168.648 26.0156 168.438 26.6016C168.227 27.1875 167.977 27.6602 167.688 28.0195C167.406 28.3789 167.117 28.6875 166.82 28.9453C166.523 29.2031 166.27 29.3789 166.059 29.4727L165.754 29.6367L169.352 36H165.508L162.273 30.1172H159.156V36H155.547ZM165.156 24.7148C165.156 24.0586 164.938 23.5156 164.5 23.0859C164.07 22.6562 163.527 22.4414 162.871 22.4414H159.156V26.8828H162.871C163.527 26.8828 164.07 26.6758 164.5 26.2617C164.938 25.8398 165.156 25.3242 165.156 24.7148ZM170.418 19.1953H183.613V22.4414H178.82V36H175.223V22.4414H170.418V19.1953ZM78.0391 50.8828H84.6367V57.1172C84.5742 57.1953 84.4727 57.3125 84.332 57.4688C84.1992 57.6172 83.8984 57.8789 83.4297 58.2539C82.9688 58.6211 82.4766 58.9492 81.9531 59.2383C81.4375 59.5195 80.7578 59.7773 79.9141 60.0117C79.0781 60.2461 78.2148 60.3633 77.3242 60.3633C74.7617 60.3633 72.5977 59.5078 70.832 57.7969C69.0742 56.0781 68.1953 54.0117 68.1953 51.5977C68.1953 49.1836 69.0742 47.1211 70.832 45.4102C72.5977 43.6992 74.7617 42.8438 77.3242 42.8438C78.207 42.8438 79.0469 42.9609 79.8438 43.1953C80.6406 43.4219 81.293 43.6992 81.8008 44.0273C82.3164 44.3555 82.7695 44.6836 83.1602 45.0117C83.5586 45.3398 83.8438 45.6172 84.0156 45.8438L84.2852 46.1953L82 48.4805C81.9531 48.418 81.8867 48.332 81.8008 48.2227C81.7227 48.1055 81.5391 47.9102 81.25 47.6367C80.9688 47.3633 80.6602 47.125 80.3242 46.9219C79.9883 46.7109 79.5469 46.5195 79 46.3477C78.4531 46.168 77.8945 46.0781 77.3242 46.0781C75.7539 46.0781 74.4414 46.6055 73.3867 47.6602C72.332 48.7148 71.8047 50.0273 71.8047 51.5977C71.8047 53.168 72.332 54.4805 73.3867 55.5352C74.4414 56.5898 75.7539 57.1172 77.3242 57.1172C78.0742 57.1172 78.7578 57.0078 79.375 56.7891C79.9922 56.5625 80.4258 56.3359 80.6758 56.1094L81.0391 55.8047V53.5195H78.0391V50.8828ZM88.5859 60V43.1953H96.0273C97.6914 43.1953 99.0664 43.7305 100.152 44.8008C101.246 45.8633 101.793 47.168 101.793 48.7148C101.793 49.3867 101.688 50.0156 101.477 50.6016C101.266 51.1875 101.016 51.6602 100.727 52.0195C100.445 52.3789 100.156 52.6875 99.8594 52.9453C99.5625 53.2031 99.3086 53.3789 99.0977 53.4727L98.793 53.6367L102.391 60H98.5469L95.3125 54.1172H92.1953V60H88.5859ZM98.1953 48.7148C98.1953 48.0586 97.9766 47.5156 97.5391 47.0859C97.1094 46.6562 96.5664 46.4414 95.9102 46.4414H92.1953V50.8828H95.9102C96.5664 50.8828 97.1094 50.6758 97.5391 50.2617C97.9766 49.8398 98.1953 49.3242 98.1953 48.7148ZM109.961 47.6836C108.914 48.7461 108.391 50.0547 108.391 51.6094C108.391 53.1562 108.914 54.4609 109.961 55.5234C111.008 56.5859 112.281 57.1172 113.781 57.1172C115.289 57.1172 116.566 56.5859 117.613 55.5234C118.66 54.4609 119.184 53.1562 119.184 51.6094C119.184 50.0547 118.66 48.7461 117.613 47.6836C116.566 46.6133 115.289 46.0781 113.781 46.0781C112.281 46.0781 111.008 46.6133 109.961 47.6836ZM107.301 57.7969C105.543 56.0781 104.664 54.0117 104.664 51.5977C104.664 49.1836 105.543 47.1211 107.301 45.4102C109.066 43.6992 111.227 42.8438 113.781 42.8438C116.344 42.8438 118.504 43.6992 120.262 45.4102C122.027 47.1211 122.91 49.1836 122.91 51.5977C122.91 54.0117 122.027 56.0781 120.262 57.7969C118.504 59.5078 116.344 60.3633 113.781 60.3633C111.227 60.3633 109.066 59.5078 107.301 57.7969ZM130.844 55.9805C131.578 56.7383 132.457 57.1172 133.48 57.1172C134.504 57.1172 135.379 56.7383 136.105 55.9805C136.832 55.2227 137.195 54.2812 137.195 53.1562V43.1953H140.793V53.1562C140.793 55.2031 140.098 56.918 138.707 58.3008C137.316 59.6758 135.57 60.3633 133.469 60.3633C131.375 60.3633 129.633 59.6758 128.242 58.3008C126.852 56.918 126.156 55.2031 126.156 53.1562V43.1953H129.754V53.1562C129.754 54.2734 130.117 55.2148 130.844 55.9805ZM145 43.1953H152.078C153.805 43.1953 155.234 43.7383 156.367 44.8242C157.508 45.9023 158.078 47.2422 158.078 48.8438C158.078 50.4375 157.512 51.7773 156.379 52.8633C155.246 53.9414 153.812 54.4805 152.078 54.4805H148.609V60H145V43.1953ZM151.961 46.4414H148.609V51.2344H151.961C152.68 51.2344 153.277 51.0039 153.754 50.543C154.238 50.082 154.48 49.5156 154.48 48.8438C154.48 48.1719 154.238 47.6055 153.754 47.1445C153.277 46.6758 152.68 46.4414 151.961 46.4414Z" fill="white"/>
<path d="M1.70898 61V18.6389H14.6978V61H1.70898Z" fill="white"/>
<path d="M18.4577 30.1611V18.6389H59.4749V30.1611H45.8025V61H32.1301V30.1611H18.4577Z" fill="white"/>
<path d="M10.8853 7.34892V11.4375H7.625C5.51941 11.4375 3.8125 9.73059 3.8125 7.625V7.34892C3.8125 5.39581 5.39581 3.8125 7.34892 3.8125C9.30203 3.8125 10.8853 5.39581 10.8853 7.34892Z" stroke="white" stroke-width="7.625"/>
</svg>
